<svg width="18" height="18" viewBox="0 0 18 18" fill="none" xmlns="http://www.w3.org/2000/svg">
<path d="M17.56 16.182L9.54369 1.21317C9.48868 1.11765 9.40947 1.03831 9.31404 0.983139C9.2186 0.927972 9.11032 0.898926 9.00009 0.898926C8.88986 0.898926 8.78158 0.927972 8.68614 0.983139C8.59071 1.03831 8.5115 1.11765 8.45649 1.21317L0.44109 16.182C0.388058 16.2754 0.360555 16.3811 0.361345 16.4886C0.362135 16.596 0.39119 16.7013 0.44559 16.794C0.55809 16.9839 0.76239 17.1 0.98379 17.1H17.0164C17.1249 17.0996 17.2314 17.0712 17.3257 17.0176C17.42 16.964 17.4988 16.887 17.5546 16.794C17.6091 16.7014 17.6383 16.5961 17.6393 16.4887C17.6402 16.3813 17.6129 16.2755 17.56 16.182ZM9.90009 15.3H8.10009V13.5H9.90009V15.3ZM9.90009 12.15H8.10009V6.29997H9.90009V12.15Z" fill="#E1BB00"/>
</svg>
