<svg width="97" height="97" viewBox="0 0 97 97" fill="none" xmlns="http://www.w3.org/2000/svg">
<rect width="97" height="97" rx="48.5" fill="#FFE2E6"/>
<path d="M48.5002 80.8333C57.0755 80.8333 65.2996 77.4267 71.3633 71.363C77.427 65.2994 80.8335 57.0753 80.8335 48.4999C80.8335 39.9246 77.427 31.7005 71.3633 25.6368C65.2996 19.5731 57.0755 16.1666 48.5002 16.1666C39.9248 16.1666 31.7007 19.5731 25.637 25.6368C19.5734 31.7005 16.1668 39.9246 16.1668 48.4999C16.1668 57.0753 19.5734 65.2994 25.637 71.363C31.7007 77.4267 39.9248 80.8333 48.5002 80.8333ZM48.5002 88.9166C26.178 88.9166 8.0835 70.822 8.0835 48.4999C8.0835 26.1778 26.178 8.08325 48.5002 8.08325C70.8223 8.08325 88.9168 26.1778 88.9168 48.4999C88.9168 70.822 70.8223 88.9166 48.5002 88.9166ZM44.4585 64.6666H52.5418V72.7499H44.4585V64.6666ZM44.4585 24.2499H52.5418V56.5833H44.4585V24.2499Z" fill="#D81A1A"/>
</svg>
