<svg width="112" height="112" viewBox="0 0 112 112" fill="none" xmlns="http://www.w3.org/2000/svg">
<g clip-path="url(#clip0_518_2828)">
<rect width="112" height="112" rx="56" fill="#E5EDFC"/>
<path d="M103.029 102.361C103.836 118.645 96.5968 119.636 90.9154 119.636H21.0873C15.4034 119.636 8.16424 118.645 8.97114 102.361C9.76021 86.4277 35.3925 78.3497 56.0001 78.3497C76.6077 78.3497 102.24 86.4252 103.029 102.361Z" fill="white"/>
<path d="M72.7407 66.1336C77.1806 61.6647 79.6749 55.6037 79.6749 49.2838C79.6749 42.9639 77.1806 36.9028 72.7407 32.434C68.3008 27.9652 62.279 25.4546 56.0001 25.4546C49.7211 25.4546 43.6993 27.9652 39.2594 32.434C34.8196 36.9028 32.3252 42.9639 32.3252 49.2838C32.3252 55.6037 34.8196 61.6647 39.2594 66.1336C43.6993 70.6024 49.7211 73.113 56.0001 73.113C62.279 73.113 68.3008 70.6024 72.7407 66.1336Z" fill="white"/>
</g>
<rect x="0.5" y="0.5" width="111" height="111" rx="55.5" stroke="#E5EDFC"/>
<defs>
<clipPath id="clip0_518_2828">
<rect width="112" height="112" rx="56" fill="white"/>
</clipPath>
</defs>
</svg>
